<svg width="191" height="65" viewBox="0 0 191 65" fill="none" xmlns="http://www.w3.org/2000/svg">
<path d="M26.7446 16.9525H14V11.0986H45.5825V16.8395H32.8298V53.0107H26.7446V16.9525Z" fill="#333333"/>
<path d="M60.9469 11.0986V28.4461H80.6198V11.0986H86.5939V53.1098H80.6198V33.6242H60.9469V53.1098H55.0376V11.0986H60.9469Z" fill="#333333"/>
<path d="M145.116 52.9398V11H151.102L164.714 32.2196C167.866 37.1361 170.322 41.5532 172.338 45.8475L172.463 45.786C171.96 40.1859 171.833 35.0831 171.833 28.5496V11H177V52.9398H171.457L157.972 31.6588C155.01 26.992 152.174 22.2003 150.033 17.6584L149.91 17.7C150.225 22.989 150.286 28.0502 150.286 35.0197V52.9398H145.116Z" fill="#333333"/>
<path d="M96.0405 14.2277V52.9394H101.661V11.0986L96.0405 14.2277Z" fill="#333333"/>
<path d="M136.985 11.0986H110.792V15.6347H136.985V11.0986Z" fill="#333333"/>
<path d="M136.985 28.8184H110.792V33.3544H136.985V28.8184Z" fill="#333333"/>
<path d="M136.985 48.4043H110.792V52.9403H136.985V48.4043Z" fill="#333333"/>
</svg>
